<?xml version="1.0" encoding="UTF-8" standalone="no"?>
<!DOCTYPE svg PUBLIC "-//W3C//DTD SVG 1.1//EN" "http://www.w3.org/Graphics/SVG/1.1/DTD/svg11.dtd">
<svg width="100%" height="100%" viewBox="0 0 20 20" version="1.1" xmlns="http://www.w3.org/2000/svg" xmlns:xlink="http://www.w3.org/1999/xlink" xml:space="preserve" xmlns:serif="http://www.serif.com/" style="fill-rule:evenodd;clip-rule:evenodd;stroke-linejoin:round;stroke-miterlimit:1.41421;">
    <path d="M17.5,6L2.5,6C2.224,6 2,5.776 2,5.5C2,5.224 2.224,5 2.5,5L17.5,5C17.776,5 18,5.224 18,5.5C18,5.776 17.776,6 17.5,6Z" style="fill:white;fill-rule:nonzero;"/>
    <path d="M17.5,11L2.5,11C2.224,11 2,10.776 2,10.5C2,10.224 2.224,10 2.5,10L17.5,10C17.776,10 18,10.224 18,10.5C18,10.776 17.776,11 17.5,11Z" style="fill:white;fill-rule:nonzero;"/>
    <path d="M17.5,16L2.5,16C2.224,16 2,15.776 2,15.5C2,15.224 2.224,15 2.5,15L17.5,15C17.776,15 18,15.224 18,15.5C18,15.776 17.776,16 17.5,16Z" style="fill:white;fill-rule:nonzero;"/>
</svg>
