<?xml version="1.0" encoding="UTF-8" standalone="no"?>
<!DOCTYPE svg PUBLIC "-//W3C//DTD SVG 1.1//EN" "http://www.w3.org/Graphics/SVG/1.1/DTD/svg11.dtd">
<svg width="24" height="24" viewBox="0 0 24 24" version="1.1" xmlns="http://www.w3.org/2000/svg" xmlns:xlink="http://www.w3.org/1999/xlink" xml:space="preserve" xmlns:serif="http://www.serif.com/" style="fill-rule:evenodd;clip-rule:evenodd;stroke-linejoin:round;stroke-miterlimit:1.41421;">
    <path d="M16,1L8,1C6.34,1 5,2.34 5,4L5,20C5,21.66 6.34,23 8,23L16,23C17.66,23 19,21.66 19,20L19,4C19,2.34 17.66,1 16,1ZM14,21L10,21L10,20L14,20L14,21ZM17.25,18L6.75,18L6.75,4L17.25,4L17.25,18Z" style="fill:white;fill-rule:nonzero;"/>
    <rect x="0" y="0" width="24" height="24" style="fill:none;"/>
</svg>
